<svg width="8338" height="8338" viewBox="0 0 8338 8338" fill="none" xmlns="http://www.w3.org/2000/svg">
<path fill-rule="evenodd" clip-rule="evenodd" d="M6705.1 3976.14C6728.82 4030.96 6760.29 4109.46 6750.76 4178.1V4178.34C6744.09 4226.3 6715.69 4266.74 6683.97 4298.17L6659.25 4320.43C6657.55 4321.72 6656.26 4322.89 6654.93 4324.07C6653.67 4325.2 5007.35 5466.39 4999.11 5471.36C4904.29 5528.69 4802 5590.5 4662.01 5596.64C4580.65 5600.24 4516.73 5583.59 4444.38 5563.27C4415.53 5555.15 1731.86 4736.27 1721.47 4732.76C1666.7 4714.17 1613.87 4696.23 1593.71 4651.83C1570.02 4599.64 1610.07 4532.74 1643.79 4498.64C1646.1 4496.29 2425.54 3710.58 2431.87 3703.71C2441.69 3693.05 2450.06 3683.98 2470.85 3667.03C2472.35 3665.82 2473.51 3664.8 2474.64 3663.81C2476.07 3662.55 2477.44 3661.35 2479.34 3659.88C2483.45 3656.7 2487.05 3653.92 2490.29 3651.4C2508.49 3637.28 2515.72 3631.67 2542.75 3613.64C2664.93 3532.31 2819.79 3484.56 2970.08 3438.22C3008.18 3426.46 5067.14 2778.22 5085.4 2771.93C5119.74 2760.1 5146.36 2751.7 5185.59 2746.69C5325.7 2728.87 5417.9 2772.49 5527.87 2824.51C5544.15 2832.22 6130.68 3117.87 6235.72 3170.64L6251.16 3178.38C6267.03 3186.35 6277.62 3192.74 6289.7 3202.38C6295.6 3207.05 6301.45 3212.25 6306.54 3216.88C6312.44 3222.32 6316.56 3226.85 6321.65 3233.1L6349.77 3267.6C6374.86 3300.52 6399.91 3348.75 6417.32 3387.74C6425.56 3406.09 6679.96 3918.12 6705.09 3976.14H6705.1ZM4991.6 3207.44C5086.95 3205.24 5174.86 3210.78 5267.05 3227.05C5309.27 3234.49 5347.65 3242.89 5386.39 3255.91C5520.44 3301.04 5716.79 3383.68 5802.88 3506.25C5812.09 3519.4 5818.56 3530.7 5826.31 3544.24C5827.61 3546.52 5828.94 3548.86 5830.35 3551.29C5890.75 3656.01 5916.85 3784.74 5866.39 3903.5C5855.36 3929.4 5828.54 3974.76 5809.83 3993.51C5806.72 3996.62 5795.41 4009.15 5791.89 4012.62L5772.91 4030.64C5769.83 4033.47 5755.65 4044.86 5752.71 4047.53L5691.05 4096.9C5684.15 4101.86 5656.11 4123.16 5648.55 4128.49C5640.88 4133.9 5579.51 4178.1 5561.57 4189.62L5517.41 4219.59C5396.09 4301.16 5233.6 4402.32 5106.78 4474.23L5012.29 4527.93C4993.22 4539.28 4973.3 4549.7 4953.42 4560.17C4940.94 4566.67 4928.5 4573.22 4916.21 4579.96C4853.72 4614.46 4784.47 4644.81 4714.54 4673.29C4545.86 4741.97 4398.73 4753.32 4205.49 4719.02C4140.85 4707.55 3050.97 4432.58 3018.73 4424.06C2984.71 4415.05 2877.53 4386.12 2846.38 4374C2648.68 4297.16 2650.83 4171.92 2785.58 4033.83L2904.44 3931.98C2911.39 3926 2917.61 3921.15 2925 3915.58C2928.07 3913.24 2931.02 3910.93 2933.93 3908.63C2937.85 3905.56 2941.73 3902.49 2945.93 3899.42C2958.21 3890.49 2969.52 3882.05 2980.43 3873.89C3010.53 3851.4 3037.92 3830.96 3075.86 3807.16C3078.36 3805.59 3108.14 3786.88 3121.51 3778.77C3194.84 3734.4 3290.75 3689.56 3369.93 3658.07C3441.76 3629.54 3512.14 3604.06 3586.48 3578.15C3688.05 3542.78 3791.83 3510.46 3895.58 3478.18C3942 3463.73 3988.38 3449.29 4034.52 3434.59C4049.02 3429.98 4063.45 3425.36 4077.91 3420.75C4080.01 3420.08 4082.11 3419.41 4084.17 3418.74L4084.29 3418.7C4142.75 3400.01 4201.05 3381.37 4260.03 3363.45C4266.66 3361.43 4273.37 3359.41 4280.03 3357.38C4280.07 3357.36 4280.11 3357.35 4280.15 3357.34C4506.44 3288.61 4755.99 3212.81 4991.6 3207.44H4991.6Z" fill="#101010"/>
</svg>
