<svg width="8338" height="8338" viewBox="0 0 8338 8338" fill="none" xmlns="http://www.w3.org/2000/svg">
<path fill-rule="evenodd" clip-rule="evenodd" d="M6703.75 3976.14C6727.47 4030.96 6758.94 4109.46 6749.4 4178.1V4178.34C6742.74 4226.3 6714.34 4266.74 6682.62 4298.17L6657.9 4320.43C6656.2 4321.72 6654.91 4322.89 6653.57 4324.07C6652.32 4325.2 5006 5466.39 4997.76 5471.36C4902.94 5528.69 4800.65 5590.5 4660.66 5596.64C4579.3 5600.24 4515.38 5583.59 4443.03 5563.27C4414.18 5555.15 1730.51 4736.27 1720.12 4732.76C1665.35 4714.17 1612.52 4696.23 1592.36 4651.83C1568.67 4599.64 1608.72 4532.74 1642.44 4498.64C1644.75 4496.29 2424.19 3710.58 2430.52 3703.71C2440.34 3693.05 2448.7 3683.98 2469.5 3667.03C2471 3665.82 2472.16 3664.8 2473.28 3663.81C2474.71 3662.55 2476.08 3661.35 2477.99 3659.88C2482.1 3656.7 2485.7 3653.92 2488.94 3651.4C2507.14 3637.28 2514.37 3631.67 2541.4 3613.64C2663.58 3532.31 2818.44 3484.56 2968.73 3438.22C3006.83 3426.46 5065.79 2778.22 5084.05 2771.93C5118.39 2760.1 5145.01 2751.7 5184.24 2746.69C5324.35 2728.87 5416.55 2772.49 5526.52 2824.51C5542.8 2832.22 6129.33 3117.87 6234.37 3170.64L6249.8 3178.38C6265.68 3186.35 6276.27 3192.74 6288.35 3202.38C6294.24 3207.05 6300.1 3212.25 6305.19 3216.88C6311.09 3222.32 6315.21 3226.85 6320.3 3233.1L6348.42 3267.6C6373.51 3300.52 6398.56 3348.75 6415.97 3387.74C6424.21 3406.09 6678.61 3918.12 6703.74 3976.14H6703.75ZM4990.25 3207.44C5085.6 3205.24 5173.51 3210.78 5265.7 3227.05C5307.92 3234.49 5346.3 3242.89 5385.04 3255.91C5519.09 3301.04 5715.44 3383.68 5801.53 3506.25C5810.74 3519.4 5817.21 3530.7 5824.96 3544.24C5826.26 3546.52 5827.59 3548.86 5829 3551.29C5889.4 3656.01 5915.5 3784.74 5865.04 3903.5C5854.01 3929.4 5827.19 3974.76 5808.48 3993.51C5805.37 3996.62 5794.06 4009.15 5790.54 4012.62L5771.55 4030.64C5768.48 4033.47 5754.3 4044.86 5751.35 4047.53L5689.7 4096.9C5682.79 4101.86 5654.76 4123.16 5647.2 4128.49C5639.53 4133.9 5578.16 4178.1 5560.22 4189.62L5516.06 4219.59C5394.74 4301.16 5232.25 4402.32 5105.43 4474.23L5010.94 4527.93C4991.87 4539.28 4971.95 4549.7 4952.07 4560.17C4939.59 4566.67 4927.15 4573.22 4914.86 4579.96C4852.36 4614.46 4783.12 4644.81 4713.18 4673.29C4544.51 4741.97 4397.38 4753.32 4204.14 4719.02C4139.5 4707.55 3049.62 4432.58 3017.38 4424.06C2983.36 4415.05 2876.18 4386.12 2845.03 4374C2647.33 4297.16 2649.48 4171.92 2784.23 4033.83L2903.09 3931.98C2910.04 3926 2916.26 3921.15 2923.65 3915.58C2926.72 3913.24 2929.67 3910.93 2932.58 3908.63C2936.5 3905.56 2940.38 3902.49 2944.58 3899.42C2956.86 3890.49 2968.17 3882.05 2979.08 3873.89C3009.18 3851.4 3036.57 3830.96 3074.51 3807.16C3077.01 3805.59 3106.79 3786.88 3120.16 3778.77C3193.49 3734.4 3289.4 3689.56 3368.58 3658.07C3440.41 3629.54 3510.79 3604.06 3585.13 3578.15C3686.69 3542.78 3790.48 3510.46 3894.23 3478.18C3940.65 3463.73 3987.03 3449.29 4033.17 3434.59C4047.67 3429.98 4062.09 3425.36 4076.56 3420.75C4078.66 3420.08 4080.76 3419.41 4082.82 3418.74L4082.94 3418.7C4141.4 3400.01 4199.7 3381.37 4258.68 3363.45C4265.31 3361.43 4272.01 3359.41 4278.68 3357.38C4278.72 3357.36 4278.76 3357.35 4278.8 3357.34C4505.08 3288.61 4754.64 3212.81 4990.25 3207.44H4990.25Z" fill="#ECECEC"/>
</svg>
